<svg width="0" height="0" class="hidden">
  <symbol fill="none" xmlns="http://www.w3.org/2000/svg" viewBox="0 0 48 48" id="shield">
    <g clip-path="url(#clip0_12_181)">
      <path d="M23.9905 27.2813C24.5089 27.2813 24.9298 26.8612 24.9298 26.3438C24.9298 25.8263 24.5089 25.4062 23.9905 25.4062C23.472 25.4062 23.0511 25.8263 23.0511 26.3438C23.0511 26.8612 23.472 27.2813 23.9905 27.2813Z" fill="black"></path>
      <path d="M23.454 47.7315C23.6173 47.848 23.8085 47.9062 24 47.9062C24.1915 47.9062 24.3827 47.848 24.546 47.7315C34.1166 40.9086 43.726 37.9149 43.726 23.8761V6.49571C43.726 6.00828 43.3514 5.60216 42.8648 5.56151L40.4233 5.35789C34.8258 4.89244 29.319 3.05625 24.4979 0.0485538C24.1934 -0.14151 23.8066 -0.14151 23.5021 0.0485538C18.6806 3.05625 13.1738 4.89244 7.57632 5.35826L5.13515 5.56151C4.64824 5.60216 4.27397 6.00828 4.27397 6.49571V23.8761C4.27397 38.3107 15.233 41.8707 23.454 47.7315V47.7315ZM6.15264 7.35814L7.73263 7.22667C13.4351 6.75206 19.0461 4.92833 24 1.9437C28.9535 4.92833 34.5649 6.75206 40.267 7.22667L41.8474 7.35814V23.8761C41.8474 36.535 33.3959 39.2512 23.9985 45.8214C15.7511 40.1077 6.15264 36.8653 6.15264 23.8761V7.35814Z" fill="black"></path>
      <path d="M23.4525 40.9171C23.7938 41.1497 24.2235 41.1328 24.5474 40.8926C33.051 35.0182 38.09 33.0853 38.09 23.8773V11.581C38.09 11.117 37.7499 10.7226 37.2901 10.6537C32.7945 9.97955 28.4681 8.58319 24.4308 6.50347C24.1402 6.35369 23.7941 6.37273 23.5278 6.52434C19.5018 8.59307 15.1893 9.98248 10.7099 10.6537C10.2501 10.7226 9.90997 11.1166 9.90997 11.581V23.8773C9.90997 33.1721 15.4289 35.4532 23.4525 40.9171V40.9171ZM11.7886 12.3804C15.6953 11.7209 19.4732 10.5347 23.0511 8.84832V22.5937C23.0511 23.1115 23.4716 23.5312 23.9905 23.5312C24.5093 23.5312 24.9298 23.1115 24.9298 22.5937V8.83953C28.5128 10.53 32.2977 11.7194 36.2113 12.3804V23.8773C36.2113 31.4982 32.6345 33.1597 24.9298 38.3602V30.0937C24.9298 29.5759 24.5093 29.1562 23.9905 29.1562C23.4716 29.1562 23.0511 29.5759 23.0511 30.0937V38.3873C15.8524 33.6046 11.7886 31.5608 11.7886 23.8773V12.3804Z" fill="black"></path>
    </g>
    <defs>
      <clipPath id="clip0_12_181">
        <rect width="48" height="48" fill="white"></rect>
      </clipPath>
    </defs>
  </symbol>
    <symbol fill="none" xmlns="http://www.w3.org/2000/svg" viewBox="0 0 48 48" id="place">
    <g clip-path="url(#clip0_26_83)">
      <path d="M41.8886 46.3093L35.5606 32.9236C35.4343 32.6565 35.2155 32.4519 34.9531 32.3402L31.8049 30.9387L37.2598 21.7964C37.2728 21.7745 37.2851 21.7523 37.2968 21.7296C38.3813 19.6128 38.9313 17.3254 38.9313 14.9313C38.9313 10.9039 37.3519 7.12821 34.4842 4.29986C31.617 1.47218 27.8184 -0.0551051 23.7886 0.00151989C19.8747 0.0558011 16.1896 1.6279 13.4119 4.4284C10.6344 7.22871 9.09205 10.9265 9.0688 14.8408C9.05455 17.2329 9.61977 19.6149 10.703 21.7295C10.7146 21.7521 10.7269 21.7744 10.7399 21.7963L16.1946 30.9385L13.0283 32.3477C12.7693 32.4629 12.5602 32.6672 12.4391 32.9235L6.11127 46.3093C5.89949 46.757 5.98883 47.2893 6.33514 47.6434C6.68136 47.9975 7.21124 48.0989 7.66377 47.8976L15.5911 44.3682L23.5184 47.8976C23.825 48.034 24.1752 48.034 24.4819 47.8976L32.4092 44.3682L40.3365 47.8976C40.4914 47.9665 40.6553 48 40.8179 48C41.1302 48 41.4374 47.8765 41.6651 47.6435C42.0111 47.2893 42.1004 46.7572 41.8886 46.3093ZM12.7943 20.6162C11.8821 18.8226 11.4257 16.8845 11.4378 14.855C11.4779 8.06477 17.0333 2.46405 23.8216 2.37002C27.2121 2.32446 30.4087 3.60743 32.8209 5.98652C35.2339 8.36618 36.5626 11.5428 36.5626 14.9314C36.5626 16.9338 36.1061 18.8461 35.2057 20.6162L25.0172 37.6926C24.7061 38.2138 24.2023 38.2701 24.0001 38.2701C23.7978 38.2701 23.2939 38.2138 22.983 37.6926L12.7943 20.6162ZM32.8907 41.9898C32.584 41.8534 32.2339 41.8534 31.9272 41.9898L23.9999 45.5191L16.0726 41.9898C15.7659 41.8534 15.4158 41.8534 15.1091 41.9898L9.61742 44.4348L14.3929 34.3333L17.417 32.9875L20.9484 38.9062C21.5957 39.9911 22.7364 40.6388 23.9997 40.6388C25.263 40.6388 26.4037 39.9911 27.051 38.9063L30.5824 32.9876L33.6068 34.3339L38.382 44.4349L32.8907 41.9898Z" fill="black"></path>
      <path d="M24.0004 9.52563C21.0197 9.52563 18.5948 11.9505 18.5948 14.9311C18.5948 17.9117 21.0197 20.3365 24.0004 20.3365C26.981 20.3366 29.4058 17.9117 29.4058 14.9311C29.4058 11.9505 26.981 9.52563 24.0004 9.52563ZM24.0004 17.9678C22.3259 17.9679 20.9635 16.6057 20.9635 14.9311C20.9635 13.2566 22.3258 11.8943 24.0004 11.8943C25.6748 11.8943 27.0371 13.2566 27.0371 14.9311C27.0371 16.6055 25.6748 17.9678 24.0004 17.9678Z" fill="black"></path>
    </g>
    <defs>
      <clipPath id="clip0_26_83">
        <rect width="48" height="48" fill="white"></rect>
      </clipPath>
    </defs>
  </symbol>
  <symbol fill="none" xmlns="http://www.w3.org/2000/svg" viewBox="0 0 20 20" id="phone">
    <path d="M1.76667 6.50834C2.39896 9.37759 3.83884 12.0061 5.91638 14.0836C7.99392 16.1612 10.6224 17.601 13.4917 18.2333C14.3936 18.415 15.3308 18.2556 16.1221 17.7861C16.9133 17.3166 17.5022 16.5703 17.775 15.6917L18.2 14.3583L14.0333 12.2833L12.05 14.2667C10.6408 13.6594 9.3555 12.7978 8.25833 11.725C7.20046 10.6244 6.35314 9.33929 5.75833 7.93334L7.71667 5.95001L5.64167 1.78334L4.30833 2.20834C3.42623 2.48129 2.67731 3.07282 2.20746 3.86772C1.73761 4.66261 1.58048 5.60394 1.76667 6.50834V6.50834Z" fill="black"></path>
  </symbol>
  <symbol fill="none" xmlns="http://www.w3.org/2000/svg" viewBox="0 0 14 17" id="man">
    <path d="M7.00001 7.33334C7.65928 7.33334 8.30375 7.13784 8.85191 6.77157C9.40007 6.4053 9.82732 5.8847 10.0796 5.27562C10.3319 4.66653 10.3979 3.99631 10.2693 3.34971C10.1407 2.7031 9.82321 2.10916 9.35703 1.64298C8.89086 1.17681 8.29691 0.85934 7.65031 0.730722C7.00371 0.602105 6.33349 0.668116 5.7244 0.920408C5.11531 1.1727 4.59472 1.59994 4.22844 2.14811C3.86217 2.69627 3.66668 3.34074 3.66668 4.00001C3.66668 4.88406 4.01787 5.73191 4.64299 6.35703C5.26811 6.98215 6.11596 7.33334 7.00001 7.33334ZM13.425 12.5C11.7192 10.7993 9.40874 9.84434 7.00001 9.84434C4.59128 9.84434 2.2808 10.7993 0.57501 12.5L0.333344 12.75V16.5H13.6667V12.75L13.425 12.5Z" fill="white"></path>
  </symbol>
   <symbol fill="none" xmlns="http://www.w3.org/2000/svg" viewBox="0 0 48 48" id="way">
    <path fill-rule="evenodd" clip-rule="evenodd" d="M15.2285 7.62842C15.2285 5.50586 13.5015 3.77881 11.3785 3.77881C9.25598 3.77881 7.52893 5.50586 7.52893 7.62842C7.52893 9.75134 9.25598 11.478 11.3785 11.478C13.5015 11.4784 15.2285 9.75134 15.2285 7.62842ZM9.40393 7.62842C9.40393 6.53967 10.2898 5.65381 11.3785 5.65381C12.4677 5.65381 13.3535 6.53967 13.3535 7.62842C13.3535 8.71716 12.4677 9.60303 11.3785 9.60303C10.2898 9.60339 9.40393 8.71716 9.40393 7.62842Z" fill="black"></path>
    <path fill-rule="evenodd" clip-rule="evenodd" d="M37.2528 24.563C34.8369 24.563 32.7836 25.165 31.5425 26.1216L28.1803 25.373C27.676 25.2606 27.1743 25.5789 27.0615 26.0842C26.9491 26.5896 27.2673 27.0906 27.7731 27.203L30.3501 27.7769C30.3021 27.964 30.2765 28.1566 30.2765 28.3533C30.2765 29.627 31.3191 30.7153 32.989 31.395L31.4879 32.9393C31.1272 33.3107 31.1356 33.9043 31.507 34.265C31.689 34.4423 31.9248 34.5302 32.1603 34.5302C32.4045 34.5302 32.6488 34.4353 32.8326 34.2463L35.0504 31.9645C35.7374 32.0806 36.4761 32.1436 37.2528 32.1436C41.2299 32.1436 44.2291 30.5139 44.2291 28.3533C44.2291 26.1926 41.2299 24.563 37.2528 24.563ZM37.2528 30.2686C34.1862 30.2686 32.1515 29.1157 32.1515 28.3533C32.1515 28.1936 32.2416 28.0171 32.4104 27.8376C32.4393 27.8124 32.4668 27.7856 32.4921 27.7563C33.1919 27.1027 34.9241 26.438 37.2528 26.438C40.3195 26.438 42.3541 27.5908 42.3541 28.3533C42.3541 29.1157 40.3195 30.2686 37.2528 30.2686Z" fill="black"></path>
    <path fill-rule="evenodd" clip-rule="evenodd" d="M26.1046 41.1684L27.6057 39.6237C27.9664 39.2524 27.958 38.6591 27.5867 38.2981C27.2157 37.9373 26.6221 37.9458 26.261 38.3171L24.0432 40.5986C23.3562 40.4825 22.6176 40.4195 21.8408 40.4195C17.8638 40.4195 14.8645 42.0492 14.8645 44.2098C14.8645 46.3704 17.8638 48.0001 21.8408 48.0001C25.8179 48.0001 28.8171 46.3704 28.8171 44.2098C28.8171 42.9361 27.7745 41.8477 26.1046 41.1684ZM21.8408 46.1251C18.7742 46.1251 16.7395 44.9722 16.7395 44.2098C16.7395 43.4473 18.7742 42.2945 21.8408 42.2945C24.9075 42.2945 26.9421 43.4473 26.9421 44.2098C26.9421 44.9722 24.9075 46.1251 21.8408 46.1251Z" fill="black"></path>
    <path fill-rule="evenodd" clip-rule="evenodd" d="M20.451 25.5725C20.5199 25.5879 20.588 25.5952 20.6558 25.5952C21.0853 25.5952 21.4728 25.2979 21.5698 24.8613C21.6823 24.356 21.364 23.855 20.8586 23.7426L18.2812 23.1683C18.3296 22.9812 18.3549 22.7889 18.3549 22.5919C18.3549 20.8352 16.4008 19.6487 14.1625 19.1151L18.3457 10.7366C18.3523 10.723 18.3589 10.7091 18.3651 10.6952C18.791 9.72583 19.0071 8.69421 19.0071 7.62854C19.0071 3.42224 15.5852 0 11.3785 0C7.17224 0 3.75 3.42224 3.75 7.62854C3.75 8.69385 3.96606 9.72546 4.39233 10.6952C4.39819 10.7091 4.40479 10.723 4.41174 10.7366L8.599 19.1235C6.35486 19.6699 4.40222 20.8568 4.40222 22.5923C4.40222 24.7529 7.40149 26.3822 11.3785 26.3822C13.7944 26.3822 15.8481 25.7802 17.0892 24.824L20.451 25.5725ZM5.625 7.62854C5.625 4.45605 8.20605 1.875 11.3785 1.875C14.551 1.875 17.1321 4.45605 17.1321 7.62854C17.1321 8.42542 16.9724 9.19629 16.6575 9.92029L11.3785 20.4935L6.09998 9.92029C5.78467 9.19592 5.625 8.42505 5.625 7.62854ZM6.27722 22.5923C6.27722 22.0997 7.49817 21.2435 9.46216 20.8524L10.5399 23.0109C10.6985 23.3287 11.0233 23.5294 11.3785 23.5294C11.7338 23.5294 12.0586 23.3287 12.2175 23.0109L13.2979 20.8466C15.2842 21.2234 16.4799 22.0774 16.4799 22.5919C16.4799 22.752 16.389 22.9292 16.2195 23.1094C16.1909 23.1346 16.1638 23.161 16.1385 23.1896C15.4387 23.8429 13.7065 24.5072 11.3785 24.5072C8.31189 24.5072 6.27722 23.3547 6.27722 22.5923Z" fill="black"></path>
    <path fill-rule="evenodd" clip-rule="evenodd" d="M29.5466 35.3442C29.0303 35.3442 28.6091 35.765 28.6091 36.2817C28.6091 36.7981 29.0303 37.2192 29.5466 37.2192C30.063 37.2192 30.4841 36.7981 30.4841 36.2817C30.4841 35.765 30.063 35.3442 29.5466 35.3442Z" fill="black"></path>
    <path fill-rule="evenodd" clip-rule="evenodd" d="M24.3157 26.4102C24.832 26.4102 25.2532 25.989 25.2532 25.4727C25.2532 24.9563 24.832 24.5352 24.3157 24.5352C23.7993 24.5352 23.3782 24.9563 23.3782 25.4727C23.3782 25.989 23.7993 26.4102 24.3157 26.4102Z" fill="black"></path>
  </symbol>
  <symbol fill="none" xmlns="http://www.w3.org/2000/svg" viewBox="0 0 48 48" id="ruble">
    <g clip-path="url(#clip0_12_174)">
      <g clip-path="url(#clip1_12_174)">
        <path d="M28.3636 13.0908H20.7273C20.1251 13.0908 19.6364 13.5795 19.6364 14.1817V28.3636H14.1818C13.5796 28.3636 13.0909 28.8523 13.0909 29.4545C13.0909 30.0566 13.5796 30.5454 14.1818 30.5454H19.6364V33.8181C19.6364 34.4203 20.1251 34.909 20.7273 34.909C21.3295 34.909 21.8182 34.4203 21.8182 33.8181V30.5454H27.2727C27.8749 30.5454 28.3636 30.0566 28.3636 29.4545C28.3636 28.8523 27.8749 28.3636 27.2727 28.3636H21.8182V26.1817H28.3636C31.9724 26.1817 34.9091 23.245 34.9091 19.6363C34.9091 16.0275 31.9724 13.0908 28.3636 13.0908ZM28.3636 23.9999H21.8182V15.2726H28.3636C30.7702 15.2726 32.7273 17.2297 32.7273 19.6363C32.7273 22.0428 30.7702 23.9999 28.3636 23.9999Z" fill="black"></path>
        <path d="M24 0C10.7673 0 0 10.7673 0 24C0 37.2327 10.7673 48 24 48C37.2327 48 48 37.2327 48 24C48 10.7673 37.2327 0 24 0ZM24 45.8182C11.9695 45.8182 2.18182 36.0305 2.18182 24C2.18182 11.9695 11.9695 2.18182 24 2.18182C36.0305 2.18182 45.8182 11.9695 45.8182 24C45.8182 36.0305 36.0305 45.8182 24 45.8182Z" fill="black"></path>
      </g>
    </g>
    <defs>
      <clipPath id="clip0_12_174">
        <rect width="48" height="48" fill="white"></rect>
      </clipPath>
      <clipPath id="clip1_12_174">
        <rect width="48" height="48" fill="white"></rect>
      </clipPath>
    </defs>
  </symbol>
  <symbol fill="none" xmlns="http://www.w3.org/2000/svg" viewBox="0 0 64 64" id="ruble">
    <g clip-path="url(#clip0_12_121)">
      <path d="M58.3819 11.3743V7.62425H28.9194V0H12.987V7.62425H5.61812V11.3743H8.91324V60.25H5.61812V64H58.3817V60.25H55.0866V11.3743H58.3819ZM16.737 3.75H25.1694V7.62425H16.737V3.75ZM51.3366 48.0859H12.6634V23.5386H51.3367V48.0859H51.3366ZM12.6634 60.25V51.8359H51.3367V60.25H12.6634ZM51.3366 19.7886H12.6634V11.3743H51.3367V19.7886H51.3366Z" fill="white"></path>
      <path d="M32 43.7956C35.6031 43.7956 38.5345 40.8642 38.5345 37.2611C38.5345 33.1817 33.7731 28.9238 33.2302 28.4516L32 27.3818L30.7696 28.4517C30.2267 28.9238 25.4654 33.1818 25.4654 37.2612C25.4655 40.8642 28.3969 43.7956 32 43.7956ZM31.9952 32.487C32.272 32.7831 32.5736 33.1231 32.8757 33.4942C34.0889 34.9842 34.7846 36.3571 34.7846 37.2612C34.7846 38.7966 33.5355 40.0457 32.0001 40.0457C30.4647 40.0457 29.2156 38.7966 29.2156 37.2612C29.2155 35.9522 30.5982 33.9881 31.9952 32.487Z" fill="white"></path>
    </g>
    <defs>
      <clipPath id="clip0_12_121">
        <rect width="64" height="64" fill="white"></rect>
      </clipPath>
    </defs>
  </symbol>
  <symbol fill="none" xmlns="http://www.w3.org/2000/svg" viewBox="0 0 10 7" id="gas">
    <path d="M0.833328 1.5L5 5.66667L9.16666 1.5" stroke="black" stroke-width="1.8"></path>
  </symbol>
  <symbol fill="none" xmlns="http://www.w3.org/2000/svg" viewBox="0 0 64 64" id="droparrow">
    <g clip-path="url(#clip0_12_146)">
      <path d="M50.5802 39.6457C49.2699 38.2815 47.6895 37.552 46.0146 37.552C44.3531 37.552 42.7592 38.2679 41.395 39.6322L37.1266 43.8871C36.7754 43.698 36.4242 43.5224 36.0865 43.3468C35.6002 43.1037 35.1409 42.8741 34.7492 42.6309C30.751 40.0915 27.1174 36.7821 23.6324 32.5002C21.944 30.366 20.8093 28.5695 19.9854 26.7459C21.093 25.7329 22.1196 24.6793 23.1191 23.6662C23.4974 23.288 23.8756 22.8963 24.2538 22.518C27.0904 19.6814 27.0904 16.0074 24.2538 13.1708L20.5662 9.48317C20.1475 9.06444 19.7152 8.63219 19.31 8.19995C18.4995 7.36247 17.6485 6.49799 16.7705 5.68753C15.4603 4.39079 13.8934 3.7019 12.2455 3.7019C10.5976 3.7019 9.00366 4.39079 7.65289 5.68753C7.63938 5.70103 7.63938 5.70103 7.62588 5.71454L3.03328 10.3477C1.3043 12.0766 0.318243 14.1838 0.102121 16.6287C-0.222062 20.5729 0.939595 24.247 1.8311 26.6514C4.01934 32.5542 7.28819 38.0248 12.1644 43.8871C18.0808 50.9516 25.1993 56.5303 33.3309 60.461C36.4377 61.9333 40.5845 63.6758 45.2176 63.973C45.5013 63.9865 45.7985 64 46.0686 64C49.1889 64 51.8094 62.8789 53.8625 60.6501C53.876 60.6231 53.903 60.6096 53.9166 60.5826C54.619 59.7316 55.4294 58.9616 56.2804 58.1377C56.8612 57.5839 57.4556 57.003 58.0364 56.3952C59.3736 55.0039 60.076 53.383 60.076 51.7216C60.076 50.0466 59.3601 48.4392 57.9959 47.0884L50.5802 39.6457ZM55.4159 53.8693C55.4024 53.8693 55.4024 53.8828 55.4159 53.8693C54.8891 54.4366 54.3488 54.9499 53.768 55.5172C52.89 56.3547 51.9985 57.2327 51.161 58.2187C49.7967 59.6776 48.1893 60.3664 46.0821 60.3664C45.8795 60.3664 45.6634 60.3664 45.4608 60.3529C41.449 60.0963 37.7209 58.5294 34.9248 57.1922C27.2795 53.4911 20.5662 48.2366 14.9875 41.5773C10.3814 36.0257 7.30169 30.8928 5.26204 25.3817C4.00583 22.0183 3.54657 19.3978 3.74918 16.9259C3.88426 15.3455 4.4921 14.0352 5.61324 12.9141L10.2193 8.30801C10.8812 7.68666 11.5836 7.34897 12.2725 7.34897C13.1235 7.34897 13.8124 7.86226 14.2446 8.2945C14.2581 8.30801 14.2716 8.32152 14.2851 8.33502C15.1091 9.10496 15.8926 9.90191 16.7165 10.7529C17.1353 11.1851 17.5675 11.6174 17.9997 12.0631L21.6873 15.7507C23.1191 17.1825 23.1191 18.5063 21.6873 19.9381C21.2956 20.3298 20.9174 20.7215 20.5257 21.0997C19.391 22.2614 18.3104 23.342 17.1353 24.3956C17.1082 24.4226 17.0812 24.4361 17.0677 24.4631C15.9061 25.6248 16.1222 26.7594 16.3653 27.5294C16.3788 27.5699 16.3923 27.6104 16.4058 27.6509C17.3649 29.9743 18.7156 32.1625 20.7688 34.7695L20.7823 34.783C24.5104 39.3756 28.4411 42.9551 32.7771 45.6971C33.3309 46.0483 33.8982 46.332 34.4385 46.6022C34.9248 46.8453 35.3841 47.0749 35.7758 47.3181C35.8298 47.3451 35.8839 47.3856 35.9379 47.4126C36.3971 47.6423 36.8294 47.7503 37.2751 47.7503C38.3963 47.7503 39.0987 47.0479 39.3283 46.8183L43.9479 42.1987C44.4072 41.7394 45.1366 41.1856 45.9876 41.1856C46.825 41.1856 47.5139 41.7124 47.9327 42.1717C47.9462 42.1852 47.9462 42.1852 47.9597 42.1987L55.4024 49.6414C56.7937 51.0192 56.7937 52.4375 55.4159 53.8693Z" fill="white"></path>
      <path d="M34.5871 15.2239C38.1261 15.8182 41.3409 17.4932 43.9074 20.0596C46.4738 22.6261 48.1353 25.8409 48.7431 29.3799C48.8917 30.2714 49.6616 30.8927 50.5396 30.8927C50.6477 30.8927 50.7423 30.8792 50.8503 30.8657C51.8499 30.7036 52.5118 29.7581 52.3497 28.7585C51.6203 24.4766 49.5941 20.5729 46.5009 17.4797C43.4076 14.3864 39.5039 12.3603 35.222 11.6309C34.2224 11.4688 33.2904 12.1306 33.1148 13.1167C32.9392 14.1028 33.5876 15.0618 34.5871 15.2239Z" fill="white"></path>
      <path d="M63.9257 28.2318C62.7235 21.1808 59.4007 14.7646 54.2948 9.65875C49.1889 4.55286 42.7728 1.22998 35.7218 0.0278007C34.7357 -0.147799 33.8037 0.527583 33.6281 1.51364C33.466 2.51321 34.1279 3.44523 35.1274 3.62083C41.422 4.68794 47.1627 7.67312 51.7283 12.2252C56.2939 16.7908 59.2656 22.5315 60.3327 28.8261C60.4813 29.7176 61.2512 30.3389 62.1292 30.3389C62.2373 30.3389 62.3318 30.3254 62.4399 30.3119C63.4259 30.1633 64.1013 29.2178 63.9257 28.2318Z" fill="white"></path>
    </g>
    <defs>
      <clipPath id="clip0_12_146">
        <rect width="64" height="64" fill="white"></rect>
      </clipPath>
    </defs>
  </symbol>
  <symbol fill="none" xmlns="http://www.w3.org/2000/svg" viewBox="0 0 14 17" id="phone">
    <path d="M7.00001 7.33334C7.65928 7.33334 8.30375 7.13784 8.85191 6.77157C9.40007 6.4053 9.82732 5.8847 10.0796 5.27562C10.3319 4.66653 10.3979 3.99631 10.2693 3.34971C10.1407 2.7031 9.82321 2.10916 9.35703 1.64298C8.89086 1.17681 8.29691 0.85934 7.65031 0.730722C7.00371 0.602105 6.33349 0.668116 5.7244 0.920408C5.11531 1.1727 4.59472 1.59994 4.22844 2.14811C3.86217 2.69627 3.66668 3.34074 3.66668 4.00001C3.66668 4.88406 4.01787 5.73191 4.64299 6.35703C5.26811 6.98215 6.11596 7.33334 7.00001 7.33334ZM13.425 12.5C11.7192 10.7993 9.40874 9.84434 7.00001 9.84434C4.59128 9.84434 2.2808 10.7993 0.57501 12.5L0.333344 12.75V16.5H13.6667V12.75L13.425 12.5Z" fill="white"></path>
  </symbol>
  <symbol fill="none" xmlns="http://www.w3.org/2000/svg" viewBox="0 0 48 48" id="man">
    <g clip-path="url(#clip0_12_83)">
      <path d="M41.8886 46.3093L35.5606 32.9236C35.4343 32.6565 35.2155 32.4519 34.9531 32.3402L31.8049 30.9387L37.2598 21.7964C37.2728 21.7745 37.2851 21.7523 37.2968 21.7296C38.3813 19.6128 38.9313 17.3254 38.9313 14.9313C38.9313 10.9039 37.3519 7.12821 34.4842 4.29986C31.617 1.47218 27.8184 -0.0551051 23.7886 0.00151989C19.8747 0.0558011 16.1896 1.6279 13.4119 4.4284C10.6344 7.22871 9.09205 10.9265 9.0688 14.8408C9.05455 17.2329 9.61977 19.6149 10.703 21.7295C10.7146 21.7521 10.7269 21.7744 10.7399 21.7963L16.1946 30.9385L13.0283 32.3477C12.7693 32.4629 12.5602 32.6672 12.4391 32.9235L6.11127 46.3093C5.89949 46.757 5.98883 47.2893 6.33514 47.6434C6.68136 47.9975 7.21124 48.0989 7.66377 47.8976L15.5911 44.3682L23.5184 47.8976C23.825 48.034 24.1752 48.034 24.4819 47.8976L32.4092 44.3682L40.3365 47.8976C40.4914 47.9665 40.6553 48 40.8179 48C41.1302 48 41.4374 47.8765 41.6651 47.6435C42.0111 47.2893 42.1004 46.7572 41.8886 46.3093ZM12.7943 20.6162C11.8821 18.8226 11.4257 16.8845 11.4378 14.855C11.4779 8.06477 17.0333 2.46405 23.8216 2.37002C27.2121 2.32446 30.4087 3.60743 32.8209 5.98652C35.2339 8.36618 36.5626 11.5428 36.5626 14.9314C36.5626 16.9338 36.1061 18.8461 35.2057 20.6162L25.0172 37.6926C24.7061 38.2138 24.2023 38.2701 24.0001 38.2701C23.7978 38.2701 23.2939 38.2138 22.983 37.6926L12.7943 20.6162ZM32.8907 41.9898C32.584 41.8534 32.2339 41.8534 31.9272 41.9898L23.9999 45.5191L16.0726 41.9898C15.7659 41.8534 15.4158 41.8534 15.1091 41.9898L9.61742 44.4348L14.3929 34.3333L17.417 32.9875L20.9484 38.9062C21.5957 39.9911 22.7364 40.6388 23.9997 40.6388C25.263 40.6388 26.4037 39.9911 27.051 38.9063L30.5824 32.9876L33.6068 34.3339L38.382 44.4349L32.8907 41.9898Z" fill="black"></path>
      <path d="M24.0004 9.52563C21.0197 9.52563 18.5948 11.9505 18.5948 14.9311C18.5948 17.9117 21.0197 20.3365 24.0004 20.3365C26.981 20.3366 29.4058 17.9117 29.4058 14.9311C29.4058 11.9505 26.981 9.52563 24.0004 9.52563ZM24.0004 17.9678C22.3259 17.9679 20.9635 16.6057 20.9635 14.9311C20.9635 13.2566 22.3258 11.8943 24.0004 11.8943C25.6748 11.8943 27.0371 13.2566 27.0371 14.9311C27.0371 16.6055 25.6748 17.9678 24.0004 17.9678Z" fill="black"></path>
    </g>
    <defs>
      <clipPath id="clip0_12_83">
        <rect width="48" height="48" fill="white"></rect>
      </clipPath>
    </defs>
  </symbol>
  <symbol fill="none" xmlns="http://www.w3.org/2000/svg" viewBox="0 0 48 48" id="certificate">
    <path fill-rule="evenodd" clip-rule="evenodd" d="M39.7536 9.38926C39.7532 9.37901 39.7529 9.36876 39.7521 9.3585C39.7492 9.31785 39.7452 9.27794 39.7371 9.23839C39.7371 9.23839 39.7371 9.23839 39.7371 9.23802C39.7291 9.19847 39.7177 9.15928 39.7049 9.1212C39.7016 9.11168 39.6983 9.10216 39.6946 9.09263C39.6811 9.05638 39.6657 9.02086 39.6481 8.98643C39.647 8.9846 39.6463 8.98277 39.6452 8.98094C39.6262 8.94505 39.6042 8.91099 39.5804 8.87767C39.5745 8.86925 39.5683 8.86119 39.5621 8.85277C39.5368 8.81981 39.5104 8.78795 39.4808 8.75828L30.9971 0.274658C30.9675 0.244995 30.9356 0.218627 30.9027 0.193359C30.8942 0.187133 30.8858 0.180542 30.8774 0.174682C30.8441 0.150879 30.8104 0.128906 30.7749 0.110229C30.7723 0.108764 30.7697 0.108032 30.7675 0.106567C30.7338 0.0889891 30.6987 0.0739744 30.6632 0.0604247C30.6533 0.0567626 30.6438 0.0534666 30.6335 0.0501708C30.5954 0.0373535 30.557 0.026001 30.517 0.0179443C30.5167 0.0179443 30.5163 0.0179443 30.5163 0.0179443C30.4771 0.0102539 30.4372 0.00585936 30.3969 0.00292968C30.3867 0.00256348 30.3764 0.00183105 30.3662 0.00146484C30.3555 0.00109864 30.3449 0 30.3343 0H9.09375C8.57593 0 8.15625 0.419677 8.15625 0.937498V41.0646C8.15625 41.5824 8.57593 42.0021 9.09375 42.0021H23.2082V47.0624C23.2082 47.4034 23.3935 47.7176 23.692 47.8827C23.9908 48.0479 24.3552 48.038 24.6441 47.8567L28.2147 45.6166L31.7852 47.8567C31.9372 47.9519 32.1104 47.9999 32.2836 47.9999C32.4396 47.9999 32.596 47.9611 32.7374 47.8831C33.0358 47.7179 33.2211 47.4037 33.2211 47.0624V42.0021H38.8176C39.3354 42.0021 39.7551 41.5824 39.7551 41.0646V9.42112C39.7551 9.4105 39.754 9.39988 39.7536 9.38926ZM31.2718 3.20104L36.5544 8.48363H31.2718V3.20104ZM22.7457 28.9566C22.6798 28.7775 22.5725 28.4849 22.5699 28.3652C22.6432 28.2744 22.8973 28.1136 23.0529 28.0154C23.3869 27.8045 23.7656 27.565 24.0403 27.1907C24.3175 26.8124 24.4303 26.3756 24.5299 25.9903C24.5735 25.8218 24.6438 25.5498 24.7038 25.4469C24.7368 25.4399 24.806 25.43 24.936 25.43C25.0404 25.43 25.1572 25.4359 25.281 25.4421C25.4231 25.449 25.5695 25.4564 25.7226 25.4564C26.0603 25.4564 26.3327 25.4183 26.5799 25.3359C27.0117 25.1923 27.357 24.9144 27.6617 24.669C27.8302 24.5335 28.1121 24.3065 28.2103 24.2926C28.3176 24.3065 28.5992 24.5335 28.7677 24.669C29.0723 24.9144 29.418 25.1923 29.8498 25.3359C30.097 25.4183 30.3691 25.4564 30.7071 25.4564C30.8598 25.4564 31.0067 25.449 31.1484 25.4421C31.2722 25.4359 31.389 25.43 31.4937 25.43C31.6237 25.43 31.6926 25.4395 31.7259 25.4469C31.786 25.5498 31.8563 25.8218 31.8995 25.9903C31.9991 26.3756 32.1123 26.8124 32.3895 27.1907C32.6638 27.565 33.0424 27.8041 33.3768 28.0154C33.5321 28.114 33.7862 28.2744 33.8594 28.3652C33.8569 28.4849 33.7496 28.7775 33.684 28.9566C33.5445 29.3364 33.3867 29.767 33.3867 30.2442C33.3867 30.7214 33.5445 31.152 33.6837 31.5322C33.7496 31.7112 33.8569 32.0038 33.8594 32.1236C33.7862 32.2144 33.5321 32.3748 33.3768 32.4733C33.0424 32.6843 32.6638 32.9238 32.3895 33.298C32.1123 33.6763 31.9991 34.1132 31.8995 34.4985C31.8563 34.6666 31.7856 34.939 31.7259 35.0419C31.6926 35.0489 31.6237 35.0588 31.4937 35.0588C31.389 35.0588 31.2722 35.0529 31.1484 35.0467C31.0067 35.0397 30.8598 35.0324 30.7071 35.0324C30.3691 35.0324 30.097 35.0705 29.8498 35.1529C29.418 35.2964 29.0723 35.5748 28.7677 35.8198C28.6018 35.9538 28.3249 36.1761 28.2147 36.1959C28.1045 36.1761 27.828 35.9538 27.6621 35.8198C27.357 35.5748 27.0117 35.2964 26.5799 35.1529C26.3327 35.0705 26.0603 35.0324 25.7226 35.0324C25.5699 35.0324 25.4231 35.0397 25.281 35.0467C25.1576 35.0529 25.0407 35.0588 24.936 35.0588C24.806 35.0588 24.7371 35.0489 24.7038 35.0419C24.6438 34.939 24.5735 34.6669 24.5299 34.4985C24.4306 34.1132 24.3175 33.6763 24.0403 33.298C23.766 32.9238 23.3873 32.6843 23.0529 32.4733C22.8977 32.3752 22.6435 32.2144 22.5703 32.1236C22.5728 32.0042 22.6801 31.7112 22.7457 31.5322C22.8852 31.1524 23.0431 30.7217 23.0431 30.2446C23.0431 29.767 22.8849 29.3364 22.7457 28.9566ZM31.3461 45.3676L28.7131 43.7156C28.4084 43.5248 28.021 43.5248 27.7163 43.7156L25.0832 45.3676V36.9308C25.1828 36.9279 25.2806 36.9242 25.3755 36.9195C25.4996 36.9129 25.6168 36.907 25.7226 36.907C25.8889 36.907 25.9599 36.9224 25.9874 36.9316C26.0991 36.9689 26.3137 37.1418 26.4862 37.2806C26.9238 37.6329 27.4683 38.0712 28.2147 38.0712C28.961 38.0712 29.5056 37.6329 29.9432 37.2806C30.1157 37.1418 30.3303 36.9689 30.4416 36.9319C30.4694 36.9228 30.5405 36.9074 30.7067 36.9074C30.8126 36.9074 30.9298 36.9133 31.0539 36.9195C31.1488 36.9242 31.2465 36.9283 31.3458 36.9308V45.3676H31.3461ZM33.2211 40.1271V36.1753C33.4998 35.7967 33.6163 35.3484 33.7148 34.9676C33.7664 34.7676 33.8371 34.4941 33.9016 34.4066C33.9656 34.3187 34.204 34.1681 34.378 34.0583C34.8394 33.7668 35.4136 33.4039 35.6418 32.7176C35.8674 32.0405 35.6326 31.4007 35.444 30.8865C35.3583 30.6533 35.2613 30.3885 35.2613 30.2442C35.2613 30.0999 35.3583 29.8355 35.444 29.6022C35.6326 29.0881 35.8674 28.4479 35.6418 27.7708C35.4136 27.0849 34.8394 26.722 34.378 26.4305C34.204 26.3206 33.9656 26.1698 33.9016 26.0826C33.8371 25.9947 33.7664 25.7211 33.7148 25.5212C33.58 24.9993 33.4123 24.3497 32.8381 23.9285C32.3811 23.5938 31.8519 23.555 31.4934 23.555C31.3417 23.555 31.1953 23.5623 31.0539 23.5697C30.9298 23.5759 30.8126 23.5817 30.7071 23.5817C30.5405 23.5817 30.4694 23.5664 30.442 23.5572C30.3306 23.5202 30.116 23.3474 29.9436 23.2082C29.5056 22.8563 28.961 22.4179 28.2147 22.4179C27.4687 22.4179 26.9238 22.8563 26.4862 23.2082C26.3137 23.347 26.0991 23.5202 25.9878 23.5572C25.9603 23.5664 25.8889 23.5817 25.7226 23.5817C25.6172 23.5817 25.4996 23.5759 25.3755 23.5693C25.2341 23.5623 25.088 23.555 24.936 23.555C24.5778 23.555 24.0487 23.5938 23.592 23.9285C23.0174 24.3497 22.8493 24.9993 22.7146 25.5212C22.6629 25.7211 22.5923 25.9947 22.5282 26.0822C22.4637 26.1698 22.2253 26.3206 22.0514 26.4305C21.5899 26.722 21.0161 27.0849 20.7876 27.7708C20.562 28.4483 20.7967 29.0881 20.9853 29.6022C21.071 29.8355 21.1681 30.0999 21.1681 30.2442C21.1681 30.3885 21.071 30.6533 20.9853 30.8865C20.7967 31.4007 20.562 32.0405 20.7876 32.718C21.0161 33.4039 21.5903 33.7668 22.0514 34.0583C22.2257 34.1681 22.4637 34.319 22.5282 34.4066C22.5923 34.4941 22.6629 34.7676 22.7146 34.9676C22.8131 35.3484 22.9299 35.7971 23.2086 36.1753V40.1271H10.0312V1.875H29.3968V9.42112C29.3968 9.93895 29.8165 10.3586 30.3343 10.3586H37.8801V40.1271H33.2211Z" fill="black"></path>
    <path fill-rule="evenodd" clip-rule="evenodd" d="M13.6747 10.3586H25.7531C26.2705 10.3586 26.6906 9.93896 26.6906 9.42114C26.6906 8.90332 26.2705 8.48364 25.7531 8.48364H13.6747C13.1569 8.48364 12.7372 8.90332 12.7372 9.42114C12.7372 9.93896 13.1572 10.3586 13.6747 10.3586Z" fill="black"></path>
    <path fill-rule="evenodd" clip-rule="evenodd" d="M34.3414 13.2158H13.6747C13.1569 13.2158 12.7372 13.6355 12.7372 14.1533C12.7372 14.6711 13.1569 15.0908 13.6747 15.0908H34.3414C34.8593 15.0908 35.2789 14.6711 35.2789 14.1533C35.2789 13.6355 34.8593 13.2158 34.3414 13.2158Z" fill="black"></path>
    <path fill-rule="evenodd" clip-rule="evenodd" d="M30.5914 17.948H13.6747C13.1569 17.948 12.7372 18.368 12.7372 18.8855C12.7372 19.4033 13.1569 19.823 13.6747 19.823H30.5914C31.1093 19.823 31.5289 19.4033 31.5289 18.8855C31.5289 18.368 31.1093 17.948 30.5914 17.948Z" fill="black"></path>
    <path fill-rule="evenodd" clip-rule="evenodd" d="M34.3414 17.948C33.8251 17.948 33.4039 18.3691 33.4039 18.8855C33.4039 19.4019 33.8251 19.823 34.3414 19.823C34.8582 19.823 35.2789 19.4019 35.2789 18.8855C35.2789 18.3691 34.8582 17.948 34.3414 17.948Z" fill="black"></path>
  </symbol>
  <symbol fill="none" xmlns="http://www.w3.org/2000/svg" viewBox="0 0 64 64" id="certificate">
    <path d="M63.4507 52.8442L52.6372 42.0307L57.9406 36.7275C58.4001 36.268 58.589 35.6033 58.4396 34.9708C58.2902 34.3383 57.8242 33.8283 57.2077 33.6228L25.388 23.0162C24.7144 22.7916 23.9714 22.967 23.4692 23.4692C22.967 23.9715 22.7916 24.7142 23.0162 25.388L33.6229 57.2078C33.8285 57.8243 34.3385 58.2905 34.9709 58.4397C35.6032 58.5893 36.268 58.4003 36.7275 57.9407L42.0309 52.6375L52.8444 63.4508C53.2105 63.817 53.6904 64.0001 54.1701 64.0001C54.6499 64.0001 55.1299 63.8171 55.4959 63.4508L63.4509 55.4958C64.1831 54.7636 64.1831 53.5765 63.4507 52.8442ZM54.17 59.4733L43.3565 48.66C42.6244 47.9277 41.437 47.9277 40.7049 48.66L36.221 53.1438L27.7596 27.7597L53.1437 36.2211L48.6599 40.705C47.9282 41.4365 47.9276 42.6245 48.6599 43.3566L59.4734 54.1701L54.17 59.4733Z" fill="white"></path>
    <path d="M24.375 15C25.4105 15 26.25 14.1605 26.25 13.125V1.875C26.25 0.8395 25.4105 0 24.375 0C23.3395 0 22.5 0.8395 22.5 1.875V13.125C22.5 14.1605 23.3395 15 24.375 15Z" fill="white"></path>
    <path d="M9.7909 7.13928C9.05878 6.40703 7.87153 6.40703 7.13928 7.13928C6.40703 7.87153 6.40703 9.05865 7.13928 9.7909L15.0943 17.7459C15.8264 18.4782 17.0138 18.4782 17.7459 17.7459C18.4782 17.0136 18.4782 15.8265 17.7459 15.0943L9.7909 7.13928Z" fill="white"></path>
    <path d="M15.0943 31.004L7.13928 38.959C6.40703 39.6913 6.40703 40.8784 7.13928 41.6106C7.8714 42.3429 9.05878 42.3429 9.7909 41.6106L17.7459 33.6556C18.4782 32.9234 18.4782 31.7363 17.7459 31.004C17.0136 30.2718 15.8264 30.2718 15.0943 31.004Z" fill="white"></path>
    <path d="M33.6557 17.7459L41.6107 9.7909C42.343 9.05865 42.343 7.87153 41.6107 7.13928C40.8786 6.40703 39.6914 6.40703 38.9591 7.13928L31.0041 15.0943C30.2719 15.8265 30.2719 17.0136 31.0041 17.7459C31.7362 18.4782 32.9236 18.4782 33.6557 17.7459Z" fill="white"></path>
    <path d="M15 24.375C15 23.3395 14.1605 22.5 13.125 22.5H1.875C0.8395 22.5 0 23.3395 0 24.375C0 25.4105 0.8395 26.25 1.875 26.25H13.125C14.1605 26.25 15 25.4105 15 24.375Z" fill="white"></path>
  </symbol>
  <symbol fill="none" xmlns="http://www.w3.org/2000/svg" viewBox="0 0 48 48" id="click-icon">
    <g clip-path="url(#clip0_12_164)">
      <path d="M24.0171 47.1374H24.0152C11.2579 47.1374 0.878776 36.7583 0.877853 24.0005C0.877853 11.2431 11.2565 0.864014 24.0143 0.864014C36.7717 0.864014 47.1503 11.2431 47.1503 24.0005C47.1503 36.7583 36.7731 47.1374 24.0171 47.1374ZM24.0143 2.71017C12.2746 2.71017 2.72401 12.2612 2.72401 24.0005C2.72493 35.7402 12.276 45.2912 24.0152 45.2912H24.0171C35.7549 45.2912 45.3042 35.7406 45.3042 24.0005C45.3042 12.2612 35.7535 2.71017 24.0143 2.71017Z" fill="black"></path>
      <path d="M24.0166 40.3847H24.0152C14.9811 40.3847 7.63062 33.0343 7.6297 24.0001C7.6297 14.966 14.9797 7.61597 24.0143 7.61597C33.0489 7.61597 40.3989 14.966 40.3989 24.0001C40.3989 33.0343 33.0499 40.3847 24.0166 40.3847ZM24.0143 9.46212C15.9979 9.46212 9.47585 15.9837 9.47585 24.0001C9.47678 32.017 15.9992 38.5386 24.0152 38.5386H24.0166C32.0317 38.5386 38.5528 32.0166 38.5528 24.0001C38.5528 15.9837 32.0308 9.46212 24.0143 9.46212Z" fill="black"></path>
      <path d="M24.0143 26.8773C23.2463 26.8773 22.524 26.5791 21.9808 26.0373C20.8579 24.912 20.8583 23.0862 21.9799 21.9656C22.5235 21.4219 23.2459 21.1228 24.0143 21.1228C24.7828 21.1228 25.5051 21.4219 26.0488 21.966C27.1703 23.0903 27.1694 24.9162 26.0479 26.0363C25.5046 26.5791 24.7823 26.8773 24.0143 26.8773ZM24.0143 22.969C23.7388 22.969 23.4803 23.076 23.2851 23.2713C22.8831 23.6733 22.8835 24.3282 23.286 24.7316C23.6723 25.1174 24.3535 25.1197 24.7431 24.7302C25.1451 24.3287 25.1446 23.6737 24.7426 23.2703C24.5483 23.0765 24.2899 22.969 24.0143 22.969Z" fill="black"></path>
      <path d="M25.3962 23.5416C25.1598 23.5416 24.924 23.4516 24.7435 23.2711C24.3831 22.9107 24.3831 22.3264 24.7435 21.9659L31.1141 15.5953C31.4746 15.2348 32.0589 15.2348 32.4194 15.5953C32.7798 15.9558 32.7798 16.5401 32.4194 16.9005L26.0488 23.2711C25.8688 23.4516 25.6325 23.5416 25.3962 23.5416Z" fill="black"></path>
      <path d="M22.6228 23.5319C22.3865 23.5319 22.1506 23.4419 21.9702 23.2614L17.2394 18.5302C16.8789 18.1697 16.8789 17.5854 17.2394 17.2245C17.5998 16.8645 18.1842 16.8641 18.5446 17.2245L23.2754 21.9562C23.6358 22.3167 23.6358 22.901 23.2754 23.2614C23.0949 23.4424 22.8586 23.5319 22.6228 23.5319Z" fill="black"></path>
    </g>
    <defs>
      <clipPath id="clip0_12_164">
        <rect width="48" height="48" fill="white"></rect>
      </clipPath>
    </defs>
  </symbol>
</svg>
<svg width="0" height="0" class="hidden">
<svg width="0" height="0" class="hidden">
  <symbol fill="none" xmlns="http://www.w3.org/2000/svg" viewBox="0 0 42 48" id="Group">
    <path fill-rule="evenodd" clip-rule="evenodd" d="M12.2285 7.62842C12.2285 5.50586 10.5015 3.77881 8.37854 3.77881C6.25598 3.77881 4.52893 5.50586 4.52893 7.62842C4.52893 9.75134 6.25598 11.478 8.37854 11.478C10.5015 11.4784 12.2285 9.75134 12.2285 7.62842ZM6.40393 7.62842C6.40393 6.53967 7.28979 5.65381 8.37854 5.65381C9.46765 5.65381 10.3535 6.53967 10.3535 7.62842C10.3535 8.71716 9.46765 9.60303 8.37854 9.60303C7.28979 9.60339 6.40393 8.71716 6.40393 7.62842Z" fill="black"></path>
    <path fill-rule="evenodd" clip-rule="evenodd" d="M34.2528 24.563C31.8369 24.563 29.7836 25.165 28.5425 26.1216L25.1803 25.373C24.676 25.2606 24.1743 25.5789 24.0615 26.0842C23.9491 26.5896 24.2673 27.0906 24.7731 27.203L27.3501 27.7769C27.3021 27.964 27.2765 28.1566 27.2765 28.3533C27.2765 29.627 28.3191 30.7153 29.989 31.395L28.4879 32.9393C28.1272 33.3107 28.1356 33.9043 28.507 34.265C28.689 34.4423 28.9248 34.5302 29.1603 34.5302C29.4045 34.5302 29.6488 34.4353 29.8326 34.2463L32.0504 31.9645C32.7374 32.0806 33.4761 32.1436 34.2528 32.1436C38.2299 32.1436 41.2291 30.5139 41.2291 28.3533C41.2291 26.1926 38.2299 24.563 34.2528 24.563V24.563ZM34.2528 30.2686C31.1862 30.2686 29.1515 29.1157 29.1515 28.3533C29.1515 28.1936 29.2416 28.0171 29.4104 27.8376C29.4393 27.8124 29.4668 27.7856 29.4921 27.7563C30.1919 27.1027 31.9241 26.438 34.2528 26.438C37.3195 26.438 39.3541 27.5908 39.3541 28.3533C39.3541 29.1157 37.3195 30.2686 34.2528 30.2686Z" fill="black"></path>
    <path fill-rule="evenodd" clip-rule="evenodd" d="M23.1046 41.1684L24.6057 39.6237C24.9664 39.2524 24.958 38.6591 24.5867 38.2981C24.2157 37.9373 23.6221 37.9458 23.261 38.3171L21.0432 40.5986C20.3562 40.4825 19.6176 40.4195 18.8408 40.4195C14.8638 40.4195 11.8645 42.0492 11.8645 44.2098C11.8645 46.3704 14.8638 48.0001 18.8408 48.0001C22.8179 48.0001 25.8171 46.3704 25.8171 44.2098C25.8171 42.9361 24.7745 41.8477 23.1046 41.1684V41.1684ZM18.8408 46.1251C15.7742 46.1251 13.7395 44.9722 13.7395 44.2098C13.7395 43.4473 15.7742 42.2945 18.8408 42.2945C21.9075 42.2945 23.9421 43.4473 23.9421 44.2098C23.9421 44.9722 21.9075 46.1251 18.8408 46.1251Z" fill="black"></path>
    <path fill-rule="evenodd" clip-rule="evenodd" d="M17.451 25.5725C17.5199 25.5879 17.588 25.5952 17.6558 25.5952C18.0853 25.5952 18.4728 25.2979 18.5698 24.8613C18.6823 24.356 18.364 23.855 17.8586 23.7426L15.2812 23.1683C15.3296 22.9812 15.3549 22.7889 15.3549 22.5919C15.3549 20.8352 13.4008 19.6487 11.1625 19.1151L15.3457 10.7366C15.3523 10.723 15.3589 10.7091 15.3651 10.6952C15.791 9.72583 16.0071 8.69421 16.0071 7.62854C16.0071 3.42224 12.5852 0 8.37854 0C4.17224 0 0.75 3.42224 0.75 7.62854C0.75 8.69385 0.966064 9.72546 1.39233 10.6952C1.39819 10.7091 1.40479 10.723 1.41174 10.7366L5.599 19.1235C3.35486 19.6699 1.40222 20.8568 1.40222 22.5923C1.40222 24.7529 4.40149 26.3822 8.37854 26.3822C10.7944 26.3822 12.8481 25.7802 14.0892 24.824L17.451 25.5725ZM2.625 7.62854C2.625 4.45605 5.20605 1.875 8.37854 1.875C11.551 1.875 14.1321 4.45605 14.1321 7.62854C14.1321 8.42542 13.9724 9.19629 13.6575 9.92029L8.37854 20.4935L3.09998 9.92029C2.78467 9.19592 2.625 8.42505 2.625 7.62854ZM3.27722 22.5923C3.27722 22.0997 4.49817 21.2435 6.46216 20.8524L7.53992 23.0109C7.69849 23.3287 8.02332 23.5294 8.37854 23.5294C8.73376 23.5294 9.05859 23.3287 9.21753 23.0109L10.2979 20.8466C12.2842 21.2234 13.4799 22.0774 13.4799 22.5919C13.4799 22.752 13.389 22.9292 13.2195 23.1094C13.1909 23.1346 13.1638 23.161 13.1385 23.1896C12.4387 23.8429 10.7065 24.5072 8.37854 24.5072C5.31189 24.5072 3.27722 23.3547 3.27722 22.5923V22.5923Z" fill="black"></path>
    <path fill-rule="evenodd" clip-rule="evenodd" d="M26.5466 35.3442C26.0303 35.3442 25.6091 35.765 25.6091 36.2817C25.6091 36.7981 26.0303 37.2192 26.5466 37.2192C27.063 37.2192 27.4841 36.7981 27.4841 36.2817C27.4841 35.765 27.063 35.3442 26.5466 35.3442Z" fill="black"></path>
    <path fill-rule="evenodd" clip-rule="evenodd" d="M21.3157 26.4102C21.832 26.4102 22.2532 25.989 22.2532 25.4727C22.2532 24.9563 21.832 24.5352 21.3157 24.5352C20.7993 24.5352 20.3782 24.9563 20.3782 25.4727C20.3782 25.989 20.7993 26.4102 21.3157 26.4102Z" fill="black"></path>
  </symbol>
</svg>